HIERARCHY
ROOT Hips
{
  OFFSET 0 89.5177 0.535
  CHANNELS 6 Xposition Yposition Zposition Zrotation Xrotation Yrotation
  JOINT Spine
  {
    OFFSET 12.0259 -0.162855 1.69034e-005
    CHANNELS 3 Zrotation Xrotation Yrotation
    JOINT Spine1
    {
      OFFSET 15.3169 -0.0121922 0
      CHANNELS 3 Zrotation Xrotation Yrotation
      JOINT Spine2
      {
        OFFSET 15.3176 -0.0121908 0
        CHANNELS 3 Zrotation Xrotation Yrotation
        JOINT Neck
        {
          OFFSET 19.9142 1.56338 0
          CHANNELS 3 Zrotation Xrotation Yrotation
          JOINT Head
          {
            OFFSET 6.92651 0 0
            CHANNELS 3 Zrotation Xrotation Yrotation
            End Site
            {
              OFFSET 20.7666 0 0
            }
          }
          JOINT LeftShoulder
          {
            OFFSET -6.20654 0.708824 7.28219
            CHANNELS 3 Zrotation Xrotation Yrotation
            JOINT LeftArm
            {
              OFFSET 14.108 0 -1.52588e-005
              CHANNELS 3 Zrotation Xrotation Yrotation
              JOINT LeftForeArm
              {
                OFFSET 28.5802 0 0
                CHANNELS 3 Zrotation Xrotation Yrotation
                JOINT LeftHand
                {
                  OFFSET 27.092 0 0
                  CHANNELS 3 Zrotation Xrotation Yrotation
                  End Site
                  {
                    OFFSET 9.55928 -0.186424 0.145352
                  }
                }
              }
            }
          }
          JOINT RightShoulder
          {
            OFFSET -6.20654 0.708866 -7.28218
            CHANNELS 3 Zrotation Xrotation Yrotation
            JOINT RightArm
            {
              OFFSET 14.108 0 1.52588e-005
              CHANNELS 3 Zrotation Xrotation Yrotation
              JOINT RightForeArm
              {
                OFFSET 28.5802 0 0
                CHANNELS 3 Zrotation Xrotation Yrotation
                JOINT RightHand
                {
                  OFFSET 27.092 0 0
                  CHANNELS 3 Zrotation Xrotation Yrotation
                  End Site
                  {
                    OFFSET 9.55929 -0.186417 -0.145354
                  }
                }
              }
            }
          }
        }
      }
    }
  }
  JOINT LeftUpLeg
  {
    OFFSET 0.005 -0.535 8.837
    CHANNELS 3 Zrotation Xrotation Yrotation
    JOINT LeftLeg
    {
      OFFSET 39.9035 0 0
      CHANNELS 3 Zrotation Xrotation Yrotation
      JOINT LeftFoot
      {
        OFFSET 39.6689 0 0
        CHANNELS 3 Zrotation Xrotation Yrotation
        JOINT LeftToe
        {
          OFFSET 10.1624 13.6296 0
          CHANNELS 3 Zrotation Xrotation Yrotation
          End Site
          {
            OFFSET 8.38147 0 0
          }
        }
      }
    }
  }
  JOINT RightUpLeg
  {
    OFFSET 0.005 -0.535 -8.837
    CHANNELS 3 Zrotation Xrotation Yrotation
    JOINT RightLeg
    {
      OFFSET 39.9035 0 0
      CHANNELS 3 Zrotation Xrotation Yrotation
      JOINT RightFoot
      {
        OFFSET 39.6689 0 0
        CHANNELS 3 Zrotation Xrotation Yrotation
        JOINT RightToe
        {
          OFFSET 10.1624 13.6296 0
          CHANNELS 3 Zrotation Xrotation Yrotation
          End Site
          {
            OFFSET 8.38147 0 0
          }
        }
      }
    }
  }
}
MOTION
Frames:	18
Frame Time:	0.0333333
375.227 90.4119 -31.7876 133.704 -83.622 42.5444 0.142075 -1.24064 0.170278 0.287944 -2.48038 0.343924 0.287944 -2.48038 0.343914 -8.30907e-012 -9.0191e-006 -5.27751e-005 27.6396 4.41248 7.50399 -178.469 -7.94376 -79.0569 43.5271 -56.6303 52.5856 -9.09178 -3.18055e-015 -4.57205e-015 -35.8654 -17.3776 -33.4898 -179.401 4.32975 82.1205 49.9028 48.2035 -49.3694 -21.5462 -6.36111e-015 -7.95139e-016 -25.7188 33.3046 36.5919 0.28547 17.5764 -178.316 -3.51505 3.18055e-015 3.97569e-016 7.02758 4.75999 -5.31047 90 5.96354e-016 -3.18055e-015 1.39385 -13.6428 -179.491 -2.69799 0 3.97569e-016 4.87186 -4.91271 5.46836 90 6.95746e-016 7.95139e-016 
375.228 90.4075 -31.8264 134.636 -83.7036 43.448 0.143707 -1.25223 0.170753 0.291257 -2.50355 0.34494 0.291256 -2.50355 0.344931 -8.30748e-012 -9.0191e-006 -5.27751e-005 27.7406 4.47748 7.44986 -178.452 -7.99472 -79.006 43.2223 -56.508 52.4762 -9.15068 0 -1.98785e-015 -35.7672 -17.4402 -33.5324 -179.398 4.33492 82.0893 49.7946 48.1124 -49.3837 -21.6178 3.18055e-015 1.59028e-015 -25.7703 33.2825 36.5875 0.286541 17.6894 -178.294 -3.54146 -6.36111e-015 7.95139e-016 7.03058 4.71395 -5.25858 90 4.96962e-017 -0 1.40963 -13.641 -179.473 -2.66803 1.59028e-015 3.97569e-016 4.92088 -5.02013 5.58947 90 -7.45443e-016 7.95139e-016 
375.228 90.4058 -31.8608 135.534 -83.7988 44.3293 0.150184 -1.24994 0.168305 0.304191 -2.4891 0.341988 0.304191 -2.4891 0.341978 -8.30748e-012 -9.0191e-006 -5.27751e-005 27.7305 4.48944 7.48913 -178.466 -7.91938 -79.0037 43.0873 -56.3336 52.4799 -9.25718 3.18055e-015 -1.19271e-015 -35.8016 -17.5242 -33.4967 -179.392 4.35489 82.0414 49.7206 48.0153 -49.3567 -21.701 0 3.97569e-015 -25.8538 33.214 36.5601 0.303804 17.7144 -178.295 -3.57179 -3.18055e-015 -7.95139e-016 7.01399 4.60914 -5.14056 90 4.22417e-016 3.18055e-015 1.42583 -13.6295 -179.479 -2.64969 1.59028e-015 -1.98785e-016 4.96057 -5.12544 5.70804 90 4.96962e-017 -0 
375.227 90.4053 -31.8803 136.343 -83.8638 45.1101 0.155723 -1.24569 0.162919 0.315349 -2.49122 0.336844 0.315349 -2.49122 0.336835 -8.30907e-012 -9.0191e-006 -5.27751e-005 27.684 4.53043 7.54196 -178.45 -7.95585 -78.9405 42.8708 -56.2243 52.5259 -9.37463 -6.36111e-015 1.59028e-015 -35.7162 -17.7246 -33.7795 -179.384 4.37443 81.9746 49.5459 47.8244 -49.2623 -21.8053 0 2.38542e-015 -26.2821 33.1924 36.8273 0.290302 17.7434 -178.27 -3.60231 6.36111e-015 1.19271e-015 7.02996 4.59888 -5.12896 90 -3.97569e-016 -3.18055e-015 1.41751 -13.5758 -179.46 -2.64518 1.59028e-015 3.97569e-016 4.96292 -5.17368 5.76237 90 5.96354e-016 7.95139e-016 
375.226 90.4048 -31.8946 137.2 -83.9292 45.9388 0.159649 -1.2434 0.157534 0.323259 -2.48586 0.331762 0.323258 -2.48586 0.331753 -8.30828e-012 -9.0191e-006 -5.27751e-005 27.679 4.64021 7.5359 -178.433 -7.97904 -78.8513 42.7727 -56.1559 52.6891 -9.41359 -6.36111e-015 5.11871e-015 -35.8762 -17.8231 -33.8459 -179.377 4.36477 81.8639 49.3254 47.5954 -49.074 -21.9024 0 3.18055e-015 -26.7023 33.2157 37.0619 0.272934 17.8096 -178.242 -3.62851 0 3.97569e-016 7.02246 4.55228 -5.0763 90 1.98785e-016 -0 1.40196 -13.5391 -179.447 -2.6484 1.59028e-015 1.39149e-015 4.99455 -5.25285 5.8515 90 1.49089e-016 1.59028e-015 
375.226 90.4044 -31.9064 137.866 -83.9804 46.5836 0.166456 -1.24753 0.155086 0.336414 -2.49414 0.314078 0.336414 -2.49414 0.314069 -8.30907e-012 -9.0191e-006 -5.27751e-005 27.6445 4.82249 7.58604 -178.417 -8.00001 -78.7667 42.5342 -55.9834 52.7468 -9.44466 -3.18055e-015 -1.63997e-015 -35.7961 -17.9951 -33.9331 -179.379 4.30695 81.7914 49.4612 47.3833 -49.2089 -22.0123 -9.54166e-015 -0 -26.7975 33.0839 36.9871 0.25557 17.9036 -178.223 -3.65828 0 -7.95139e-016 7.04668 4.55471 -5.07908 90 -1.63997e-015 3.18055e-015 1.39256 -13.5017 -179.43 -2.64769 1.59028e-015 -0 4.99284 -5.27641 5.87815 90 -1.63997e-015 -7.95139e-016 
375.227 90.4044 -31.9165 138.402 -84.004 47.0903 0.169938 -1.25343 0.15772 0.343456 -2.50592 0.319441 0.343455 -2.50592 0.319432 -8.30669e-012 -9.0191e-006 -5.27751e-005 27.6503 5.01387 7.54389 -178.408 -7.96492 -78.6579 42.3588 -55.7584 52.8157 -9.35112 0 -2.11209e-016 -35.8283 -17.9428 -33.805 -179.37 4.33372 81.7167 49.3257 47.1852 -49.1672 -21.9877 -6.36111e-015 4.77083e-015 -26.8088 33.136 36.9597 0.20945 17.9209 -178.191 -3.71366 -3.18055e-015 -0 7.04419 4.49769 -5.01482 90 -2.98177e-016 3.18055e-015 1.39603 -13.4579 -179.402 -2.60885 3.18056e-015 3.97569e-016 4.96381 -5.2882 5.89134 90 -1.88845e-015 7.95139e-016 
375.216 90.4039 -31.9277 139.063 -84.0425 47.7392 0.174615 -1.2632 0.156187 0.349388 -2.52546 0.311823 0.349388 -2.52546 0.311813 -8.30828e-012 -9.0191e-006 -5.27751e-005 27.5926 5.29685 7.49015 -178.403 -7.94255 -78.5891 42.2379 -55.4806 52.8769 -9.2873 -9.54166e-015 -5.06901e-015 -35.7526 -17.9213 -33.7426 -179.375 4.28868 81.7045 49.4869 47.1044 -49.3835 -21.8393 0 -6.36111e-015 -26.9135 32.985 36.9669 0.19853 17.9592 -178.192 -3.72886 -3.18055e-015 -3.97569e-016 7.04342 4.46403 -4.97693 90 -4.47266e-016 -3.18055e-015 1.38496 -13.4355 -179.405 -2.59497 -1.59028e-015 -5.96354e-016 4.97196 -5.33508 5.94419 90 1.09332e-015 -1.59028e-015 
375.21 90.4035 -31.9417 139.74 -84.0863 48.4023 0.178908 -1.27457 0.152923 0.361161 -2.5482 0.304187 0.361161 -2.5482 0.304178 -8.30828e-012 -9.0191e-006 -5.27751e-005 27.5333 5.51565 7.37001 -178.392 -7.9342 -78.5049 42.2702 -55.4082 53.0195 -9.093 -3.18055e-015 4.96962e-017 -35.863 -17.8337 -33.7702 -179.382 4.22878 81.6807 49.5524 47.0257 -49.4879 -21.6764 6.36111e-015 2.38542e-015 -26.9063 33.0516 37.0294 0.189749 18.0087 -178.187 -3.7526 -9.54166e-015 -0 7.04662 4.43231 -4.94115 90 4.96962e-017 -0 1.37918 -13.4088 -179.409 -2.58086 3.18056e-015 3.97569e-016 4.98695 -5.39419 6.0108 90 -1.49089e-016 -7.95139e-016 
375.201 90.4035 -31.9582 140.57 -84.1476 49.2271 0.180179 -1.28193 0.149932 0.363855 -2.56292 0.304179 0.363855 -2.56292 0.30417 -8.30828e-012 -9.0191e-006 -5.27751e-005 27.4279 5.72495 7.2723 -178.375 -7.94385 -78.3964 42.4401 -55.4323 53.1841 -8.88569 0 9.93923e-017 -35.6216 -17.8416 -33.6912 -179.382 4.21429 81.6445 49.5387 47.0051 -49.4802 -21.5493 9.54166e-015 -5.56597e-015 -26.8696 33.1038 37.0394 0.215206 18.0389 -178.204 -3.72697 3.18055e-015 -0 6.99286 4.3536 -4.85258 90 1.98785e-016 3.18055e-015 1.38558 -13.3482 -179.41 -2.54775 0 -0 4.9715 -5.41191 6.03087 90 9.93923e-017 7.95139e-016 
375.184 90.4034 -31.9727 141.483 -84.2077 50.1486 0.182182 -1.28104 0.147813 0.367376 -2.55799 0.291532 0.367376 -2.55799 0.291523 -8.30828e-012 -9.0191e-006 -5.27751e-005 27.2991 5.85376 7.1717 -178.392 -7.86275 -78.4052 42.7328 -55.3813 53.3648 -8.75006 -3.18055e-015 -3.37934e-015 -35.7491 -17.8197 -33.7938 -179.382 4.19761 81.6165 49.5851 46.9845 -49.4657 -21.4869 -3.18055e-015 -2.38542e-015 -26.9393 33.112 37.0873 0.226944 18.0738 -178.237 -3.73617 3.18055e-015 7.95139e-016 6.96201 4.27637 -4.76565 90 1.49089e-016 -1.27222e-014 1.38322 -13.2594 -179.438 -2.51071 0 1.98785e-016 4.96737 -5.43984 6.06246 90 -1.83876e-015 -7.95139e-016 
375.189 90.4029 -31.9901 142.573 -84.2518 51.2312 0.184272 -1.27892 0.146788 0.371889 -2.554 0.297933 0.371889 -2.554 0.297924 -8.30907e-012 -9.0191e-006 -5.27751e-005 27.1784 5.93241 6.92459 -178.379 -7.86593 -78.3176 43.0417 -55.5343 53.5295 -8.63805 -3.18055e-015 3.55328e-015 -35.8444 -17.7155 -33.8045 -179.38 4.19225 81.5816 49.6067 47.0152 -49.3877 -21.497 3.18055e-015 6.36111e-015 -26.9158 33.088 37.0393 0.199745 18.1464 -178.232 -3.76057 -1.27222e-014 3.97569e-016 6.95822 4.24366 -4.72878 90 -4.96962e-017 -9.54166e-015 1.36392 -13.1976 -179.433 -2.48289 -1.59028e-015 3.97569e-016 4.9686 -5.47299 6.09998 90 1.31695e-015 1.59028e-015 
375.178 90.4024 -32.0124 143.107 -84.2742 51.7666 0.185282 -1.27638 0.148665 0.374079 -2.56612 0.301765 0.374079 -2.56612 0.301756 -8.30669e-012 -9.0191e-006 -5.27751e-005 27.0576 6.04621 6.78616 -178.388 -7.84055 -78.3432 43.5088 -55.6046 53.7862 -8.58032 6.36111e-015 5.3734e-016 -35.7729 -17.6213 -33.6733 -179.373 4.21464 81.5372 49.5572 47.0501 -49.2631 -21.5332 -3.18055e-015 -7.95139e-016 -26.9346 33.1753 37.1326 0.200559 18.1835 -178.245 -3.77229 6.36111e-015 -3.97569e-016 6.94562 4.22352 -4.70603 90 1.49089e-016 -3.18055e-015 1.38192 -13.1965 -179.446 -2.43223 -3.18056e-015 3.97569e-016 4.96973 -5.52538 6.15912 90 2.48481e-016 -0 
375.18 90.4016 -32.0267 143.902 -84.2792 52.5626 0.178642 -1.27425 0.153915 0.361 -2.56262 0.314845 0.361 -2.56262 0.314836 -8.30828e-012 -9.0191e-006 -5.27751e-005 27.0216 6.14525 6.65239 -178.381 -7.8483 -78.3018 43.6745 -55.7076 53.7973 -8.50281 0 3.05631e-015 -35.9892 -17.6037 -33.6544 -179.37 4.2433 81.5476 49.5549 47.0532 -49.1814 -21.5682 -3.18055e-015 1.03368e-014 -27.0745 33.207 37.2445 0.208481 18.1908 -178.26 -3.70537 -3.18055e-015 3.97569e-016 6.90473 4.22357 -4.70589 90 3.97569e-016 -6.36111e-015 1.35234 -13.1795 -179.455 -2.40276 0 -5.96354e-016 4.9745 -5.57443 6.21445 90 1.73937e-016 7.95139e-016 
375.191 90.4013 -32.0493 144.654 -84.3061 53.3158 0.17314 -1.27336 0.159483 0.349961 -2.54575 0.323104 0.349961 -2.54575 0.323094 -8.30907e-012 -9.0191e-006 -5.27751e-005 27.009 6.20613 6.64953 -178.379 -7.84123 -78.28 43.8617 -55.8856 53.7983 -8.38709 3.18055e-015 1.31695e-015 -35.8412 -17.5764 -33.6626 -179.367 4.262 81.5487 49.6174 47.0681 -49.1362 -21.6196 -3.18055e-015 7.95139e-016 -26.8976 33.2537 37.1671 0.218661 18.3001 -178.262 -3.67721 -3.18055e-015 -7.95139e-016 6.87792 4.20081 -4.68032 90 4.96962e-017 3.18055e-015 1.35532 -13.1186 -179.44 -2.36759 -3.18056e-015 -1.98785e-016 4.95636 -5.57174 6.21164 90 9.44227e-016 7.95139e-016 
375.195 90.4004 -32.077 144.964 -84.3038 53.6257 0.166935 -1.2751 0.163269 0.337635 -2.54925 0.330545 0.337634 -2.54925 0.330536 -8.30907e-012 -9.0191e-006 -5.27751e-005 26.9954 6.25215 6.58011 -178.38 -7.84235 -78.2865 43.8909 -55.9085 53.6935 -8.42026 -3.18055e-015 3.47873e-016 -35.9415 -17.7016 -33.9004 -179.366 4.27009 81.547 49.6552 47.115 -49.1166 -21.5808 3.18055e-015 -1.59028e-015 -27.1232 33.3458 37.401 0.268909 18.3034 -178.27 -3.5826 6.36111e-015 7.95139e-016 6.84609 4.22097 -4.70282 90 0 3.18055e-015 1.35748 -13.1519 -179.445 -2.35994 4.77083e-015 7.95139e-016 4.99493 -5.6232 6.26978 90 5.96354e-016 2.38542e-015 
375.201 90.4002 -32.097 144.922 -84.2793 53.5823 0.161526 -1.27651 0.166067 0.32688 -2.55207 0.336027 0.326879 -2.55207 0.336018 -8.3051e-012 -9.0191e-006 -5.27751e-005 27.0016 6.26745 6.5325 -178.392 -7.798 -78.3135 44.1216 -56.0294 53.7629 -8.42612 3.18055e-015 8.44835e-016 -36.2135 -17.6284 -33.8545 -179.362 4.27525 81.5068 49.7045 47.1742 -49.0772 -21.5836 3.18055e-015 -2.38542e-015 -26.9753 33.3449 37.3088 0.296412 18.2943 -178.282 -3.5192 9.54166e-015 -0 6.82072 4.19214 -4.67068 90 -6.4605e-016 -0 1.37275 -13.1455 -179.433 -2.32764 -4.77083e-015 -1.98785e-016 4.9749 -5.59804 6.24151 90 6.70898e-016 -0 
375.212 90.3997 -32.1128 144.559 -84.2468 53.218 0.160555 -1.28392 0.173713 0.325127 -2.56602 0.351324 0.325127 -2.56602 0.351315 -8.30669e-012 -9.0191e-006 -5.27751e-005 26.9655 6.31932 6.52658 -178.395 -7.8021 -78.3372 44.2573 -56.1149 53.8361 -8.38577 -3.18055e-015 1.68967e-015 -36.0439 -17.5418 -33.7965 -179.361 4.28498 81.5068 49.6998 47.1361 -49.0915 -21.5769 -6.36111e-015 -1.59028e-015 -27.1769 33.443 37.4851 0.307695 18.2925 -178.268 -3.49262 -6.36111e-015 -1.19271e-015 6.84756 4.26413 -4.75157 90 -1.49089e-016 -0 1.39272 -13.1631 -179.419 -2.31671 -1.59028e-015 3.97569e-016 4.97448 -5.57509 6.21566 90 -1.2424e-016 -7.95139e-016 
